<svg width="16" height="16" viewBox="0 0 16 16" fill="none" xmlns="http://www.w3.org/2000/svg">
<path d="M10.8433 3.08696C9.14216 3.08696 7.73718 1.99999 5.59835 1.99999C4.80613 1.99999 4.09648 2.13699 3.43819 2.3754C3.52942 2.14086 3.56825 1.88972 3.55203 1.63908C3.49578 0.750458 2.75575 0.0376765 1.852 0.00148899C0.836349 -0.0391985 0 0.75924 0 1.74999C0 2.34455 0.301492 2.86952 0.761905 3.18577V15.25C0.761905 15.6642 1.10302 16 1.52381 16H2.03175C2.45254 16 2.79365 15.6642 2.79365 15.25V12.3C3.69241 11.923 4.81213 11.6087 6.42651 11.6087C8.12772 11.6087 9.53267 12.6957 11.6715 12.6957C13.2007 12.6957 14.4228 12.1865 15.5605 11.4188C15.8362 11.2329 16 10.9241 16 10.5952V2.99827C16 2.26724 15.2296 1.78358 14.556 2.09152C13.4659 2.5899 12.1289 3.08696 10.8433 3.08696Z" fill="#757575"/>
</svg>
