<svg width="16" height="18" viewBox="0 0 16 18" fill="none" xmlns="http://www.w3.org/2000/svg">
<path d="M0.428571 6.75H15.5714C15.8071 6.75 16 6.93984 16 7.17188V16.3125C16 17.2441 15.2321 18 14.2857 18H1.71429C0.767857 18 0 17.2441 0 16.3125V7.17188C0 6.93984 0.192857 6.75 0.428571 6.75ZM16 5.20312V3.9375C16 3.00586 15.2321 2.25 14.2857 2.25H12.5714V0.421875C12.5714 0.189844 12.3786 0 12.1429 0H10.7143C10.4786 0 10.2857 0.189844 10.2857 0.421875V2.25H5.71429V0.421875C5.71429 0.189844 5.52143 0 5.28571 0H3.85714C3.62143 0 3.42857 0.189844 3.42857 0.421875V2.25H1.71429C0.767857 2.25 0 3.00586 0 3.9375V5.20312C0 5.43516 0.192857 5.625 0.428571 5.625H15.5714C15.8071 5.625 16 5.43516 16 5.20312Z" fill="#757575"/>
</svg>
