<svg width="16" height="14" viewBox="0 0 16 14" fill="none" xmlns="http://www.w3.org/2000/svg">
<path d="M7.95833 0.000761636C7.80855 0.00734055 7.66291 0.0506223 7.53491 0.12659C7.4069 0.202559 7.30068 0.308751 7.2261 0.435326L0.118106 12.4189C0.0403508 12.5508 -0.000380657 12.7002 2.68098e-06 12.8523C0.000386019 13.0043 0.0418707 13.1536 0.12029 13.2851C0.19871 13.4166 0.311303 13.5257 0.446763 13.6015C0.582222 13.6772 0.735778 13.717 0.892008 13.7167H15.108C15.2642 13.717 15.4178 13.6772 15.5532 13.6015C15.6887 13.5257 15.8013 13.4166 15.8797 13.2851C15.9581 13.1536 15.9996 13.0043 16 12.8523C16.0004 12.7002 15.9597 12.5508 15.8819 12.4189L8.76795 0.435326C8.68682 0.297692 8.56841 0.184374 8.42564 0.107743C8.28288 0.0311118 8.12123 -0.00588845 7.95833 0.000761636ZM8 3.62024C8.31564 3.62024 8.5715 3.87612 8.5715 4.19174V9.52571C8.5715 9.84135 8.31564 10.0972 8 10.0972C7.68438 10.0972 7.4285 9.84135 7.4285 9.52571V4.19174C7.4285 3.87612 7.68438 3.62024 8 3.62024ZM8 10.4782C8.31563 10.4782 8.5715 10.7341 8.5715 11.0497C8.5715 11.3653 8.31563 11.6212 8 11.6212C7.68437 11.6212 7.4285 11.3653 7.4285 11.0497C7.4285 10.7341 7.68437 10.4782 8 10.4782Z" fill="#DB4437"/>
</svg>
