<svg width="10" height="16" viewBox="0 0 10 16" fill="none" xmlns="http://www.w3.org/2000/svg">
<path d="M5 0C2.23958 0 0 2.30357 0 5.14286C0 7.58929 1.66319 9.63929 3.88889 10.1571V12H2.63889C2.40972 12 2.22222 12.1929 2.22222 12.4286V13.8571C2.22222 14.0929 2.40972 14.2857 2.63889 14.2857H3.88889L3.88889 15.5714C3.88889 15.8071 4.07639 16 4.30555 16H5.69444C5.92361 16 6.11111 15.8071 6.11111 15.5714V14.2857H7.36111C7.59028 14.2857 7.77778 14.0929 7.77778 13.8571L7.77778 12.4286C7.77778 12.1929 7.59028 12 7.36111 12H6.11111V10.1571C8.3368 9.63571 10 7.58929 10 5.14286C10 2.30357 7.76042 0 5 0ZM5 8C3.46875 8 2.22222 6.71786 2.22222 5.14286C2.22222 3.56786 3.46875 2.28571 5 2.28571C6.53125 2.28571 7.77778 3.56786 7.77778 5.14286C7.77778 6.71786 6.53125 8 5 8Z" fill="#757575"/>
</svg>
