<svg width="18" height="16" viewBox="0 0 18 16" fill="none" xmlns="http://www.w3.org/2000/svg">
<path d="M17.625 0H15.1562C14.8219 0 14.6563 0.403125 14.8906 0.640625L15.4187 1.16875L13.8969 2.69062C13.2031 2.25312 12.3813 2 11.5 2C10.4469 2 9.48125 2.3625 8.7125 2.96563C9.15 3.4875 9.49375 4.09063 9.71562 4.75C10.1687 4.2875 10.8 4 11.5 4C12.8781 4 14 5.12188 14 6.5C14 7.87813 12.8781 9 11.5 9C10.8031 9 10.1687 8.7125 9.71562 8.25C9.49375 8.90938 9.15312 9.5125 8.7125 10.0344C9.47812 10.6406 10.4469 11 11.5 11C13.9844 11 16 8.98438 16 6.5C16 5.61875 15.7469 4.79688 15.3094 4.10313L16.8312 2.58125L17.3594 3.10938C17.4344 3.18438 17.5281 3.21875 17.6219 3.21875C17.8156 3.21875 18 3.06875 18 2.84375V0.375C18 0.16875 17.8313 0 17.625 0ZM4.5 2C2.01562 2 0 4.01562 0 6.5C0 8.64062 1.49688 10.4344 3.5 10.8875V12.5H2.375C2.16875 12.5 2 12.6687 2 12.875V14.125C2 14.3313 2.16875 14.5 2.375 14.5H3.5V15.625C3.5 15.8313 3.66875 16 3.875 16H5.125C5.33125 16 5.5 15.8313 5.5 15.625V14.5H6.625C6.83125 14.5 7 14.3313 7 14.125V12.875C7 12.6687 6.83125 12.5 6.625 12.5H5.5V10.8875C7.50312 10.4312 9 8.64062 9 6.5C9 4.01562 6.98438 2 4.5 2ZM4.5 9C3.12188 9 2 7.87813 2 6.5C2 5.12188 3.12188 4 4.5 4C5.87812 4 7 5.12188 7 6.5C7 7.87813 5.87812 9 4.5 9Z" fill="#757575"/>
</svg>
