<svg width="17" height="17" viewBox="0 0 17 17" fill="none" xmlns="http://www.w3.org/2000/svg">
<path fill-rule="evenodd" clip-rule="evenodd" d="M12.1439 0H15.5762C15.8629 0 16.0976 0.24099 16.0976 0.535534V4.06113C16.0976 4.38245 15.8412 4.59667 15.5719 4.59667C15.4415 4.59667 15.3112 4.54757 15.2069 4.44047L14.4726 3.68626L12.9249 5.27605C13.6949 6.40833 14.1449 7.77572 14.1449 9.24823C14.1449 13.1542 10.9785 16.3207 7.07245 16.3207C3.16644 16.3207 0 13.1542 0 9.24823C0 5.34222 3.16644 2.17578 7.07245 2.17578C8.48831 2.17578 9.807 2.59183 10.9129 3.30835L12.5088 1.66908L11.7746 0.91487C11.4487 0.575699 11.679 0 12.1439 0ZM10.8802 9.24769C10.8802 11.3509 9.17515 13.0559 7.07191 13.0559C4.96868 13.0559 3.26367 11.3509 3.26367 9.24769C3.26367 7.14446 4.96868 5.43945 7.07191 5.43945C9.17515 5.43945 10.8802 7.14446 10.8802 9.24769Z" fill="#757575"/>
</svg>
