<svg width="16" height="16" viewBox="0 0 16 16" fill="none" xmlns="http://www.w3.org/2000/svg">
<path d="M12.5 4.5C12.5 6.98438 10.4844 9 8 9C5.51562 9 3.5 6.98438 3.5 4.5C3.5 2.01562 5.51562 0 8 0C10.4844 0 12.5 2.01562 12.5 4.5Z" fill="#757575"/>
<path d="M10.2781 10H12C14.2094 10 16 11.7906 16 14V14.5C16 15.3281 15.3281 16 14.5 16H1.5C0.671875 16 0 15.3281 0 14.5V14C0 11.7906 1.79063 10 4 10H5.72187C6.41875 10.3187 7.1875 10.5 8 10.5C8.8125 10.5 9.58437 10.3187 10.2781 10Z" fill="#757575"/>
</svg>
