<svg width="16" height="16" viewBox="0 0 16 16" fill="none" xmlns="http://www.w3.org/2000/svg">
<path d="M15.7824 13.8331L12.6665 10.7178C12.5259 10.5772 12.3352 10.4991 12.1353 10.4991H11.6259C12.4884 9.39594 13.0009 8.00875 13.0009 6.49937C13.0009 2.90906 10.0912 0 6.50059 0C2.90999 0 0 2.90906 0 6.49937C0 10.0897 2.90967 12.9987 6.50059 12.9987C8.00996 12.9987 9.39777 12.4862 10.5009 11.6237V12.1331C10.5009 12.3331 10.579 12.5238 10.7196 12.6644L13.8356 15.7797C14.1293 16.0734 14.6043 16.0734 14.8949 15.7797L15.7793 14.8953C16.073 14.6016 16.073 14.1269 15.7824 13.8331ZM6.50059 10.9987C4.01498 10.9987 2.00061 8.98812 2.00061 6.49937C2.00061 4.01406 4.01154 2 6.50059 2C8.98621 2 11.0006 4.01062 11.0006 6.49937C11.0006 8.98469 8.98964 10.9987 6.50059 10.9987ZM6.50122 3.5C5.22685 3.5 4.19373 4.53281 4.19373 5.80719C4.19373 6.83719 5.70185 8.715 6.27966 9.39656C6.30676 9.42899 6.34064 9.45507 6.37893 9.47297C6.41721 9.49087 6.45896 9.50015 6.50122 9.50015C6.54348 9.50015 6.58522 9.49087 6.62351 9.47297C6.66179 9.45507 6.69568 9.42899 6.72278 9.39656C7.30059 8.715 8.80871 6.8375 8.80871 5.80719C8.80871 4.53281 7.77559 3.5 6.50122 3.5ZM6.50122 6.5C6.08684 6.5 5.75122 6.16406 5.75122 5.75C5.75122 5.33563 6.08716 5 6.50122 5C6.91528 5 7.25121 5.33563 7.25121 5.75C7.25121 6.16406 6.91528 6.5 6.50122 6.5Z" fill="#757575"/>
</svg>
